<svg xmlns="http://www.w3.org/2000/svg" viewBox="0 0 69.11 69.11"><g id="Ebene_2" data-name="Ebene 2"><g id="Ebene_1-2" data-name="Ebene 1"><rect width="69.11" height="69.11" style="fill:#3e51cb"/><path d="M56.69,13.61H12.42a4.92,4.92,0,0,0-4.93,4.93V48.05A4.91,4.91,0,0,0,12.42,53H24.71V57.9H44.4V53H56.69a4.9,4.9,0,0,0,4.89-4.92l0-29.51A4.92,4.92,0,0,0,56.69,13.61Zm0,4.93V20.3L49.9,27.61l-4.59-5.82L34.4,36.48,29,31.8l-6,8.77L17.8,38.25l-5.38,5.82V18.54ZM12.42,48.05V47l5.88-6.36,5.46,2.42,5.66-8.29,5.29,4.62L45.36,25.08l4.42,5.6,6.91-7.44V48.05Z" style="fill:#fff"/><polygon points="16.81 43.75 16.28 44.32 24.09 44.32 22.8 43.75 16.81 43.75" style="fill:#fff"/><polygon points="24.12 44.32 56.69 44.32 56.69 43.75 24.51 43.75 24.12 44.32" style="fill:#fff"/><polygon points="33.24 39.45 27.44 39.45 27.05 40.02 33.9 40.02 33.24 39.45" style="fill:#fff"/><polygon points="35.5 40.02 56.69 40.02 56.69 39.45 35.92 39.45 35.5 40.02" style="fill:#fff"/><polygon points="15.33 39.45 12.42 39.45 12.42 40.02 14.8 40.02 15.33 39.45" style="fill:#fff"/><polygon points="25.53 35.15 12.42 35.15 12.42 35.73 25.14 35.73 25.53 35.15" style="fill:#fff"/><polygon points="38.69 35.73 56.69 35.73 56.69 35.15 39.12 35.15 38.69 35.73" style="fill:#fff"/><polygon points="30.14 31.43 36.9 31.43 37.33 30.86 29.48 30.86 30.14 31.43" style="fill:#fff"/><polygon points="48.65 30.86 42.31 30.86 41.89 31.43 49.1 31.43 48.65 30.86" style="fill:#fff"/><polygon points="50.45 31.43 56.69 31.43 56.69 30.86 50.98 30.86 50.45 31.43" style="fill:#fff"/><polygon points="28.47 30.86 12.42 30.86 12.42 31.43 28.08 31.43 28.47 30.86" style="fill:#fff"/><polygon points="40.52 26.56 12.42 26.56 12.42 27.13 40.1 27.13 40.52 26.56" style="fill:#fff"/><polygon points="54.44 27.13 56.69 27.13 56.69 26.56 54.97 26.56 54.44 27.13" style="fill:#fff"/><polygon points="45.38 26.72 45.08 27.13 45.7 27.13 45.38 26.72" style="fill:#fff"/><polygon points="43.72 22.26 12.42 22.26 12.42 22.83 43.29 22.83 43.72 22.26" style="fill:#fff"/><polygon points="52.97 22.83 53.5 22.26 46.96 22.26 47.41 22.83 52.97 22.83" style="fill:#fff"/><polygon points="12.42 48.05 40.01 18.54 12.42 18.54 12.42 48.05" style="fill:#fff;opacity:0.200000002980232;isolation:isolate"/></g></g></svg>