<?xml version="1.0" encoding="UTF-8"?>
<svg xmlns="http://www.w3.org/2000/svg" viewBox="0 0 64 64">
  <defs>
    <style>
      .cls-1 {
        fill: #fff;
      }

      .cls-2 {
        opacity: .4;
      }

      .cls-3 {
        fill: #131313;
      }
    </style>
  </defs>
  <g id="BG-Color">
    <rect class="cls-1" width="64" height="64" rx="4" ry="4"/>
  </g>
  <g id="ExtentionIcons">
    <g class="cls-2">
      <path class="cls-3" d="M31.861084,34.504761c-.37793-1.06958-.574951-2.203979-.574951-3.362183,0-5.592651,4.550049-10.142578,10.142578-10.142578.102051,0,.200928.012329.302246.015381-.344238-.60376-.986328-1.015381-1.730957-1.015381h-12.079102c-1.104492,0-2,.895386-2,2v12.032471c0,1.104492.895508,2,2,2h2.198242c.512451-.578857,1.09375-1.096436,1.741943-1.52771Z"/>
    </g>
    <g>
      <path class="cls-3" d="M16,35.97168v-15.944336c0-2.22168,1.806641-4.02832,4.02832-4.02832h22.022461c2.22168,0,4.02832,1.806641,4.02832,4.02832v2.111694c1.651367.856567,3.033203,2.153809,4,3.735229v-5.846924c0-4.426758-3.601562-8.02832-8.02832-8.02832h-22.022461c-4.426758,0-8.02832,3.601562-8.02832,8.02832v15.944336c0,4.426758,3.601562,8.02832,8.02832,8.02832h7.829102v-2c0-.688232.088623-1.354736.234375-2h-8.063477c-2.22168,0-4.02832-1.806641-4.02832-4.02832Z"/>
      <path class="cls-3" d="M21.920898,26c-1.104492,0-2,.895508-2,2v6c0,1.104492.895508,2,2,2s2-.895508,2-2v-6c0-1.104492-.895508-2-2-2Z"/>
      <circle class="cls-3" cx="21.920898" cy="22" r="2"/>
      <path class="cls-3" d="M46.621582,36.032471c1.205078-1.279419,1.949707-2.997437,1.949707-4.889893,0-3.938477-3.204102-7.142578-7.142578-7.142578s-7.142578,3.204102-7.142578,7.142578c0,1.892456.744629,3.610474,1.949707,4.889893-3.017578.312012-5.378418,2.868896-5.378418,5.967529v8c0,1.104492.895508,2,2,2h17.142578c1.104492,0,2-.895508,2-2v-8c0-3.098633-2.36084-5.655518-5.378418-5.967529ZM41.428711,28c1.732422,0,3.142578,1.410156,3.142578,3.142578,0,1.733398-1.410156,3.143555-3.142578,3.143555s-3.142578-1.410156-3.142578-3.143555c0-1.732422,1.410156-3.142578,3.142578-3.142578ZM48,48h-13.142578v-6c0-1.102539.897461-2,2-2h9.142578c1.102539,0,2,.897461,2,2v6Z"/>
    </g>
  </g>
</svg>
